<svg xmlns="http://www.w3.org/2000/svg" viewBox="0 0 48 48" fill="none">
  <rect width="48" height="48" rx="8" fill="#8B4513" opacity="0.3"/>
  <path d="M34 28v2c0 2.2-1.8 4-4 4H14c-2.2 0-4-1.8-4-4V14c0-2.2 1.8-4 4-4h16c2.2 0 4 1.8 4 4v2h-10c-2.2 0-4 1.8-4 4v8c0 2.2 1.8 4 4 4h10z" fill="#8B4513"/>
  <rect x="24" y="16" width="14" height="16" rx="2" fill="#D2691E"/>
  <circle cx="29" cy="24" r="2" fill="#8B4513"/>
  <circle cx="24" cy="12" r="3" fill="#FF8C00"/>
  <path d="M24 18l3-3h-2V12h-2v3h-2z" fill="#FFF"/>
</svg>
